<svg xmlns="http://www.w3.org/2000/svg" viewBox="0 0 192.72 192.72"><defs><style>.cls-1{fill:#f29940;}.cls-2{fill:#f9b318;}.cls-3{fill:#faf2ea;}</style></defs><g id="Layer_2" data-name="Layer 2"><g id="Final_usage" data-name="Final usage"><g id="PP-Logo-Circle-yellow"><circle class="cls-1" cx="96.36" cy="96.36" r="96.36"/><circle class="cls-2" cx="96.36" cy="96.36" r="87.08"/><path class="cls-3" d="M135.06,90.86c.18-.61-.6-1.92-1.24-2.53-1.7-1.62-3.88-3.06-2.4-5.8s4.1-2.47,6.59-2.38a4.69,4.69,0,0,1,2.72,1.11,2.66,2.66,0,0,1,.55,2.84c-.48.79-.93,1.54-2,1.07s-1.63-3-2.15-3-.53,1.47-.1,2.21a7.47,7.47,0,0,0,2,1.77c2.95,2.32,2.63,6.06-.9,7.14a15,15,0,0,1-6.49,0,2.66,2.66,0,0,1-2.16-3.38c.17-.72.68-1.79,1.61-1.8a2.69,2.69,0,0,1,2.11,1.14c.7.7.45,1.67.78,1.95A.65.65,0,0,0,135.06,90.86Z"/><path class="cls-3" d="M144.69,152.79c-8.83.05-14-6.51-11.32-13.45,1.28-3.33,4.87-5.8,8.1-5.56.49,0,1,0,1.31.51s-.1.7-.39,1c-2.09,2.41-2.2,4.4-.38,6a5.32,5.32,0,0,0,7.35-1,9.06,9.06,0,0,0,1.3-7.15,16.43,16.43,0,0,0-1.8-4.61,25.84,25.84,0,0,1-1.43-2.89c-.81-2.19-1.12-4.39.72-6.27a7.71,7.71,0,0,1,7.48-1.33,2.62,2.62,0,0,1,1.74,3.18,1.74,1.74,0,0,1-2,1.44c-.85-.09-1.59-.44-1.54-1.57,0-.45.55-1.32-.51-1.27-.67,0-.81.72-.89,1.31a7.27,7.27,0,0,0,1.23,4.48c1.73,3.11,3.51,6.18,4.1,9.79,1.28,7.72-3,15.1-10.09,17A20.62,20.62,0,0,1,144.69,152.79Z"/><path class="cls-3" d="M133.27,117.6c1.07.12,2.33-.37,2.64,1s1,.63,1.5.28a7.13,7.13,0,0,1,4.22-1.26c2.31.08,3.38,1.22,3.06,3.48-.22,1.47-.62,2.91-.92,4.37s-.35,2.7,1.76,1.89c.42-.16.9-.28,1.08.15a1.66,1.66,0,0,1-.19,1.15c-1,2.08-4.42,3.28-6.74,2.4-1.87-.69-2.54-2.59-1.84-5.29.25-1,.56-1.91.86-2.85.2-.59.29-1.19-.29-1.57s-1.27,0-1.71.51c-1.7,2.06-2.29,4.56-2.74,7.11-.35,2-2.07,2.94-4.7,2.35-2.12-.47-1.1-2-.91-3.21.45-2.77,1.33-5.44,1.28-8.32C129.6,117.34,131.91,118,133.27,117.6Z"/><path class="cls-3" d="M124.66,80.23c2-.21,2.53.78,2.13,2.51s-.84,3.3-1.11,5c-.21,1.32-.45,2.85,1.93,2,1.25-.44,1.23.33.86,1.16-.87,2-3.86,3.16-6.43,2.57-2.4-.54-2.7-2.23-2.64-4.28.08-2.51,1.1-4.84,1.28-7.38C120.81,80.05,123.15,80.38,124.66,80.23Z"/><path class="cls-3" d="M122,77.05a3.16,3.16,0,0,1,3.16-3.35c1.62,0,2.47.73,2.44,2.37a3.48,3.48,0,0,1-3.18,3.45A2.21,2.21,0,0,1,122,77.05Z"/><path class="cls-3" d="M88.49,79.88c2.19.07,4.31.87,6.6.12,1.45-.48,1.52.71,1.19,1.85a22.33,22.33,0,0,0-1.22,6.32c0,1.09.12,2.13,1.69,1.51.39-.15.81-.38,1.12,0s.1.92-.15,1.37a5,5,0,0,1-6.89,1.69,1.91,1.91,0,0,0-2.37-.35c-3.64,1.78-6.41,1.43-7.83-.78-1.71-2.68-.8-7.51,1.86-9.77A8.39,8.39,0,0,1,88.49,79.88Zm1.57,4.48c-.06-.86.25-1.84-.73-2.26s-1.73.36-2.23,1.12a9.26,9.26,0,0,0-1.47,5.42,1.63,1.63,0,0,0,1,1.56c.78.31,1.27-.28,1.66-.78C89.48,87.92,89.71,86.09,90.06,84.36Z"/><path class="cls-3" d="M100.05,125.7c-.14-6.75,6.88-9.18,11.42-7.7,2.58.84,2.71,4.18.31,6a10.18,10.18,0,0,1-3.81,1.78c-.51.12-1.28.14-1.23,1a1.57,1.57,0,0,0,1.1,1.25,4,4,0,0,0,4-.54c1.4-.88,2.62,2.55.54,3.16C105.35,132.14,99.76,130,100.05,125.7Zm6.68-1.94c.68.31,2.32-1.3,3-2.39.27-.46.38-.92-.07-1.32a1,1,0,0,0-1.34,0C107.24,121,106.06,123.44,106.73,123.76Z"/><path class="cls-3" d="M56.86,79.88c2.19.07,4.31.87,6.6.12,1.45-.48,1.52.71,1.19,1.85a22,22,0,0,0-1.22,6.32c0,1.09.12,2.13,1.69,1.51.38-.15.81-.38,1.12,0s.09.92-.15,1.37a5,5,0,0,1-6.89,1.69,1.91,1.91,0,0,0-2.37-.35c-3.64,1.78-6.42,1.43-7.83-.78-1.71-2.68-.81-7.51,1.86-9.77A8.38,8.38,0,0,1,56.86,79.88Zm1.57,4.48c-.07-.86.24-1.84-.74-2.26s-1.72.36-2.23,1.12A9.33,9.33,0,0,0,54,88.64a1.63,1.63,0,0,0,1,1.56c.78.31,1.27-.28,1.66-.78C57.85,87.92,58.08,86.09,58.43,84.36Z"/><path class="cls-3" d="M65.64,117.52c2.19.08,4.31.87,6.6.12,1.44-.48,1.52.71,1.19,1.85a21.65,21.65,0,0,0-1.22,6.32c0,1.09.12,2.13,1.69,1.51.38-.15.81-.38,1.12,0s.09.92-.15,1.37A5,5,0,0,1,68,130.41a1.92,1.92,0,0,0-2.37-.35c-3.64,1.78-6.42,1.43-7.83-.78-1.71-2.68-.81-7.5,1.86-9.77A8.38,8.38,0,0,1,65.64,117.52ZM67.21,122c-.07-.86.24-1.84-.74-2.25s-1.72.35-2.23,1.11a9.33,9.33,0,0,0-1.46,5.42,1.65,1.65,0,0,0,1,1.57c.78.31,1.27-.28,1.66-.79C66.63,125.56,66.86,123.73,67.21,122Z"/><path class="cls-3" d="M70.79,108.94c0,5.47-6.49,7-10.3,7.33-.56,0-1.26.2-1.56-.46-.4-.86.39-1.16.9-1.52a8.45,8.45,0,0,0,3.5-7.52c0-1.47-1.4-4.67-3-4.65-1.35,0-1.21,1.79-1.42,3.33a130.74,130.74,0,0,1-3.1,16.39,28,28,0,0,1-3.45,8c-3.56,5.51-11.32,7.3-16.71,3.85a9.28,9.28,0,0,1-3.27-11.28c1.53-3.79,6.57-6.69,10.33-5.91.63.13,1.42.18,1.56,1s-.78.94-1.31,1.24c-2.52,1.45-3.42,3.46-2.28,5.2s4,2,6.06.52a10.07,10.07,0,0,0,3.17-4.68c2.39-6.61,3-9,5.16-16.15a11.15,11.15,0,0,0,.51-2.51h0c0-.56-.17-1.19-.72-1.28a1,1,0,0,0-1,1.14c.13,1.25-.74,1.63-1.71,1.64A1.75,1.75,0,0,1,50.27,101c-.22-1.58.21-3.21,5-3.46S70.79,99.5,70.79,108.94Z"/><path class="cls-3" d="M121.71,117.55c.74,0,1.28.2,1.32,1.1,0,.43.23.53.65.21a8.29,8.29,0,0,1,1.94-1.1,2.12,2.12,0,0,1,2.48.59,2.57,2.57,0,0,1,.25,2.6,2.65,2.65,0,0,1-2.29,2.12,1.84,1.84,0,0,1-1.92-.64.56.56,0,0,0-1,0,9.57,9.57,0,0,0-1.08,2,19.5,19.5,0,0,0-1.22,5.13c-.08,1.23-.28,1.3-1.51,1.35-.86,0-1.71.14-2.57.18-1.5.07-1.7-.27-1.52-1.35.21-1.34.54-2.66.78-4,.34-2,1.1-4,.74-6-.18-1.09,0-1.38,1.1-1.69A27.68,27.68,0,0,1,121.71,117.55Z"/><path class="cls-3" d="M73.74,79.33c.74,0,1.28.2,1.32,1.09,0,.44.23.53.66.22a8.22,8.22,0,0,1,1.93-1.1,2.11,2.11,0,0,1,2.48.59,2.55,2.55,0,0,1,.26,2.59,2.67,2.67,0,0,1-2.3,2.13,1.86,1.86,0,0,1-1.92-.65.56.56,0,0,0-1,0,9.64,9.64,0,0,0-1.08,2.06,19.5,19.5,0,0,0-1.22,5.13c-.08,1.22-.28,1.3-1.51,1.35-.86,0-1.71.14-2.57.18-1.5.07-1.69-.27-1.52-1.36.21-1.34.55-2.66.78-4,.35-2,1.11-4,.75-6-.19-1.08,0-1.37,1.09-1.68A26.42,26.42,0,0,1,73.74,79.33Z"/><path class="cls-3" d="M108.76,115.09a21.19,21.19,0,0,1-11.35,3.24,4,4,0,0,0-1.76.36l-.21.13a3,3,0,0,0-1.19,2.05c-.32,1.56-.64,3.12-.91,4.69a1.91,1.91,0,0,0,.72,2.14c.78.49,1.34-.12,2-.47s1.2-1.28,1.83-.45c.5.68-.34,1.32-.82,1.81-1.46,1.5-3.12,2.63-4.44,2.58-3.37,0-4.65-1.29-4.67-3.75a31.17,31.17,0,0,1,1-6c.16-.9.69-1.8.24-2.66a11,11,0,0,0-3.22-.48c-1.92,0-2.8.82-3.15,2.53s-.65,3.13-.92,4.7a1.92,1.92,0,0,0,.72,2.14c.79.49,1.34-.12,1.95-.48s1.21-1.27,1.83-.44-.34,1.32-.82,1.81c-1.46,1.49-3.11,2.63-4.44,2.58-3.36,0-4.65-1.29-4.66-3.75a31.15,31.15,0,0,1,1-6c.22-1.15,1-2.3-.37-3.35-.41-.3-.22-1,.5-1.07a7.39,7.39,0,0,0,4.83-3.44c.38-.53.82-1.21,1.57-.79s.38,1.14.16,1.74c-.6,1.63.3,1.84,1.62,2,2.42.2,2.66,1,4.92,0a8.72,8.72,0,0,0,3.16-2.92c.38-.53.83-1.21,1.57-.79s.38,1.14.16,1.74c-.59,1.63.16,1.63,1.45,1.34a14.09,14.09,0,0,0,10.26-11c.4-2.37,1.16-2.64,3.09-1.1C114.14,106.76,113.36,112.13,108.76,115.09Z"/><path class="cls-3" d="M142.29,88.24c-.15-6.75,6.88-9.18,11.42-7.7,2.58.84,2.71,4.18.31,6a10.18,10.18,0,0,1-3.81,1.78c-.51.12-1.28.14-1.23.95a1.55,1.55,0,0,0,1.1,1.25,4,4,0,0,0,4-.54c1.4-.88,2.62,2.55.54,3.16C147.59,94.69,142,92.57,142.29,88.24ZM149,86.3c.67.31,2.31-1.3,3-2.39.27-.46.38-.92-.08-1.31a1,1,0,0,0-1.33,0C149.48,83.49,148.3,86,149,86.3Z"/><path class="cls-3" d="M94.4,66.38c-3.87.05-7.22.72-9.51,3.89-.35.49-.74,1-1.39.81s-.76-1-.84-1.66a10.61,10.61,0,0,1,8.09-11.56c4.5-1.11,8.58.08,12.41,2.29,3.24,1.85,6.38,3.88,9.49,5.94,1.34.88,2,.81,2.72-.76A19.56,19.56,0,0,1,120.8,58a10.17,10.17,0,0,1,6.87-2.51c3.68.09,6.31,1.86,7,4.53a9,9,0,0,1-3.82,9.8A15.72,15.72,0,0,1,120.33,72c-1.58-.18-2.33.09-2.79,1.79-1.14,4.16-2.3,8.3-3.08,12.54-.55,3,0,3.5,2.85,2.56.42-.14.83-.26,1.15.07s.07.75-.09,1.12c-1.31,3-6,4.45-8.49,2.51a1.66,1.66,0,0,0-2.33-.07,6,6,0,0,1-1.57.72c-4.2,1.25-7-.82-6.88-5.14.09-5.34,3.82-8.76,9.29-8.19,1.65.18,1.93-.34,2.45-1.71s2.54-5.22,1.47-7c-.94-1.55-12.41-4.19-15.44-4.71A19.5,19.5,0,0,0,94.4,66.38Zm28.09,3c1.71-.18,3.79-.66,4.92-2.85a2.63,2.63,0,0,0-.21-3.24c-1-1-2.26-.87-3.41-.17a9.91,9.91,0,0,0-3.25,3.7C119.34,68.79,119.57,69.17,122.49,69.34Zm-13.25,15c0-1,.25-2-.81-2.27s-1.56.39-2,1.1a11.69,11.69,0,0,0-1.5,5.41c-.06.69,0,1.54,1,1.76a1.57,1.57,0,0,0,1.66-.84A12.42,12.42,0,0,0,109.24,84.37Z"/><path class="cls-3" d="M63.79,62.61C62,63.69,56,57.81,52,61.12c4,1.67,9.15,5.55,9.17,10.88S54.84,77.9,51,78.22c-.56,0-1.26.2-1.56-.46-.4-.86.39-1.16.9-1.51a7.94,7.94,0,0,0,3.5-7.53,4.56,4.56,0,0,0-.16-1.23c-.57-1.49-1.25-3.44-2.85-3.42-1.35,0-1.11,1.23-1.42,3.33a140.61,140.61,0,0,1-3.1,16.4,27.9,27.9,0,0,1-3.45,8c-3.56,5.52-12.17,6.95-16.22,4.16S22.27,90.2,23.56,87c1.54-3.19,5.38-3.27,7.65-1.15a4.83,4.83,0,0,0,6.06.52,10,10,0,0,0,3.17-4.68c2.38-5.76,3.48-12,5.75-17.75.27-.69.19-1.09-.65-1.16-2.62-.23-5.17-.07-7.42,1.48-1.8,1.25-3.3,2.59-3.28,5.28s1.83,6,.53,7.18c-.82.72-5.87-.93-7.67-5.22-.86-2,0-4.6,2.37-7.07,3.38-3.53,7.94-4.14,12.53-4.6a6.22,6.22,0,0,1,1.43,0L45,60c-.25-.24-.5-.46-.74-.67a4.28,4.28,0,0,0-1.1-.58,7.89,7.89,0,0,0-8.27.64c-.52.35-1.08,1-1.74.31-.51-.51-.13-1.11.12-1.62,1.63-3.46,4.38-9.2,9.37-7.32,3.15,1.19,5,4.09,6,7.16.58-1.76,1.24-3.65,1.71-3.62s.35,2.41.09,4.56a7.27,7.27,0,0,0,.88-.81,6.68,6.68,0,0,1,9.73.34C62.81,60.14,65,61.9,63.79,62.61Z"/></g></g></g></svg>