<svg xmlns="http://www.w3.org/2000/svg" viewBox="0 0 177.59 177.59"><defs><style>.cls-1{fill:#efd8e6;}.cls-2{fill:#faf2ea;}</style></defs><g id="Layer_2" data-name="Layer 2"><g id="Final_usage" data-name="Final usage"><g id="PP-Logo-Circle-pink"><circle class="cls-1" cx="88.8" cy="88.8" r="87.3" transform="translate(-27.22 136.85) rotate(-67.5)"/><path class="cls-2" d="M88.8,3A85.8,85.8,0,1,1,3,88.8,85.9,85.9,0,0,1,88.8,3m0-3a88.8,88.8,0,1,0,88.79,88.8A88.8,88.8,0,0,0,88.8,0Z"/><path class="cls-2" d="M138.37,142.86c-8.84.06-14-6.5-11.33-13.44,1.28-3.34,4.88-5.81,8.1-5.57.5,0,1,0,1.32.52s-.11.69-.39,1c-2.1,2.42-2.2,4.41-.38,6a5.32,5.32,0,0,0,7.35-1,9.11,9.11,0,0,0,1.3-7.15,16.38,16.38,0,0,0-1.8-4.62,25,25,0,0,1-1.44-2.88c-.8-2.19-1.12-4.4.73-6.28a7.69,7.69,0,0,1,7.47-1.32,2.62,2.62,0,0,1,1.75,3.18,1.75,1.75,0,0,1-2,1.44c-.86-.09-1.59-.44-1.54-1.57,0-.45.55-1.32-.51-1.27-.68,0-.82.71-.89,1.31a7.24,7.24,0,0,0,1.23,4.47c1.72,3.12,3.5,6.18,4.1,9.8,1.27,7.72-3,15.1-10.1,17A18.83,18.83,0,0,1,138.37,142.86Z"/><path class="cls-2" d="M126.94,107.68c1.07.12,2.34-.37,2.65,1s1,.62,1.5.28a7,7,0,0,1,4.22-1.26c2.3.08,3.38,1.22,3.05,3.47-.21,1.47-.62,2.92-.92,4.38s-.34,2.69,1.77,1.89c.42-.16.9-.29,1.08.15a1.63,1.63,0,0,1-.2,1.15c-1,2.08-4.41,3.27-6.74,2.4-1.86-.7-2.53-2.59-1.83-5.29.24-1,.55-1.91.86-2.86.19-.59.28-1.19-.29-1.57-.72-.47-1.27,0-1.71.52-1.71,2.06-2.3,4.56-2.75,7.1-.35,2-2.06,2.94-4.69,2.36-2.12-.47-1.1-2-.91-3.22.44-2.76,1.32-5.43,1.28-8.32C123.27,107.42,125.59,108.05,126.94,107.68Z"/><path class="cls-2" d="M93.72,115.78c-.14-6.76,6.89-9.19,11.43-7.7,2.57.84,2.71,4.18.31,6a10.15,10.15,0,0,1-3.82,1.78c-.5.13-1.27.14-1.22,1a1.57,1.57,0,0,0,1.1,1.25,4,4,0,0,0,4-.54c1.4-.88,2.62,2.55.54,3.16C99,122.22,93.44,120.11,93.72,115.78Zm6.69-2c.67.31,2.31-1.29,3-2.38.27-.46.39-.92-.07-1.32a1,1,0,0,0-1.34.05C100.92,111,99.74,113.52,100.41,113.83Z"/><path class="cls-2" d="M59.31,107.6c2.19.07,4.32.87,6.6.11,1.45-.47,1.53.72,1.2,1.86a21.65,21.65,0,0,0-1.22,6.32c0,1.09.12,2.13,1.68,1.51.39-.16.82-.38,1.13,0s.09.92-.15,1.37a5,5,0,0,1-6.89,1.69,1.91,1.91,0,0,0-2.37-.35c-3.65,1.77-6.42,1.43-7.83-.78-1.71-2.68-.81-7.51,1.86-9.77A8.37,8.37,0,0,1,59.31,107.6Zm1.57,4.48c-.06-.86.25-1.84-.73-2.26s-1.73.36-2.23,1.12a9.26,9.26,0,0,0-1.47,5.42,1.63,1.63,0,0,0,1,1.56c.77.31,1.27-.28,1.66-.78C60.31,115.64,60.53,113.81,60.88,112.08Z"/><path class="cls-2" d="M64.47,99c0,5.47-6.49,7-10.3,7.33-.56,0-1.26.2-1.56-.46-.4-.86.39-1.16.9-1.52A8.45,8.45,0,0,0,57,96.85c0-1.47-1.4-4.67-3-4.65-1.35,0-1.21,1.79-1.42,3.33a132.57,132.57,0,0,1-3.1,16.39,28,28,0,0,1-3.45,8c-3.56,5.51-11.32,7.3-16.71,3.85a9.28,9.28,0,0,1-3.27-11.28c1.53-3.79,6.57-6.69,10.33-5.91.63.13,1.42.18,1.56,1s-.78.94-1.31,1.24c-2.52,1.45-3.42,3.46-2.28,5.2s4,2,6.06.52a10.07,10.07,0,0,0,3.17-4.68c2.39-6.61,3-9,5.16-16.15a11.15,11.15,0,0,0,.51-2.51h0c0-.56-.17-1.19-.73-1.29a1,1,0,0,0-1,1.15c.13,1.25-.74,1.63-1.71,1.64A1.75,1.75,0,0,1,44,91c-.22-1.58.2-3.21,5-3.46S64.47,89.58,64.47,99Z"/><path class="cls-2" d="M115.38,107.63c.74,0,1.28.2,1.33,1.09,0,.44.22.53.65.22a8.29,8.29,0,0,1,1.94-1.1,2.11,2.11,0,0,1,2.48.59A2.55,2.55,0,0,1,122,111a2.67,2.67,0,0,1-2.29,2.13,1.87,1.87,0,0,1-1.93-.65.56.56,0,0,0-1,0,9.25,9.25,0,0,0-1.09,2.06,19.48,19.48,0,0,0-1.21,5.13c-.09,1.22-.29,1.3-1.52,1.35-.85,0-1.71.14-2.57.18-1.49.07-1.69-.27-1.52-1.36.21-1.34.55-2.66.78-4,.35-2,1.11-3.95.75-6-.19-1.08,0-1.37,1.1-1.68A26.31,26.31,0,0,1,115.38,107.63Z"/><path class="cls-2" d="M102.44,105.17a21.2,21.2,0,0,1-11.36,3.24,4,4,0,0,0-1.75.36l-.21.13a3,3,0,0,0-1.19,2c-.32,1.57-.65,3.13-.91,4.7a1.92,1.92,0,0,0,.71,2.14c.79.49,1.35-.12,2-.48s1.2-1.27,1.82-.44-.34,1.32-.82,1.81c-1.45,1.49-3.11,2.63-4.44,2.58-3.36,0-4.65-1.29-4.66-3.75a31.94,31.94,0,0,1,1-6c.17-.9.69-1.8.24-2.66a10.88,10.88,0,0,0-3.21-.48c-1.93,0-2.81.82-3.16,2.53s-.64,3.13-.91,4.7a1.89,1.89,0,0,0,.72,2.13c.78.5,1.34-.11,2-.47s1.21-1.27,1.83-.44-.34,1.31-.82,1.81c-1.46,1.49-3.11,2.62-4.44,2.58-3.36,0-4.65-1.3-4.66-3.76a31.18,31.18,0,0,1,1-6c.22-1.15,1-2.3-.37-3.35-.41-.31-.22-1,.5-1.08a7.34,7.34,0,0,0,4.83-3.43c.38-.53.82-1.21,1.57-.79s.37,1.14.16,1.74c-.6,1.62.3,1.84,1.62,2,2.4.2,2.66,1,4.86.07l.06,0a8.81,8.81,0,0,0,3.16-2.92c.38-.53.82-1.21,1.57-.79s.38,1.14.16,1.74c-.6,1.63.15,1.63,1.44,1.33A14,14,0,0,0,101,95c.41-2.37,1.17-2.64,3.1-1.1C107.82,96.84,107,102.21,102.44,105.17Z"/><g id="Paradise"><path class="cls-2" d="M128.74,80.94c.18-.61-.61-1.92-1.24-2.53-1.7-1.63-3.89-3.06-2.4-5.81,1.41-2.6,4.1-2.47,6.59-2.37a4.6,4.6,0,0,1,2.71,1.11,2.66,2.66,0,0,1,.56,2.83c-.48.8-.94,1.55-2,1.08s-1.63-3-2.14-3-.53,1.47-.11,2.21a7.69,7.69,0,0,0,2,1.77c2.94,2.31,2.62,6-.9,7.13a15,15,0,0,1-6.49,0A2.66,2.66,0,0,1,123.16,80c.16-.72.68-1.78,1.61-1.79a2.72,2.72,0,0,1,2.11,1.13c.69.71.45,1.68.77,2A.66.66,0,0,0,128.74,80.94Z"/><path class="cls-2" d="M118.34,70.3c2-.21,2.52.79,2.12,2.52s-.84,3.3-1.11,5c-.21,1.33-.44,2.85,1.93,2,1.26-.45,1.23.32.87,1.16-.87,2-3.87,3.15-6.44,2.57-2.4-.54-2.69-2.23-2.63-4.28.07-2.52,1.1-4.85,1.28-7.38C114.49,70.12,116.83,70.45,118.34,70.3Z"/><path class="cls-2" d="M115.64,67.13a3.17,3.17,0,0,1,3.15-3.36c1.62,0,2.48.74,2.45,2.38a3.5,3.5,0,0,1-3.18,3.45A2.21,2.21,0,0,1,115.64,67.13Z"/><path class="cls-2" d="M82.16,70c2.2.07,4.32.87,6.61.11,1.44-.48,1.52.71,1.19,1.86a21.59,21.59,0,0,0-1.22,6.31c0,1.09.12,2.14,1.68,1.52.39-.16.82-.39,1.13,0s.09.92-.15,1.38a5,5,0,0,1-6.89,1.69,1.91,1.91,0,0,0-2.37-.36c-3.64,1.78-6.42,1.44-7.83-.78C72.6,79,73.5,74.21,76.17,72A8.28,8.28,0,0,1,82.16,70Zm1.58,4.48c-.07-.87.24-1.85-.74-2.26s-1.72.36-2.23,1.11a9.41,9.41,0,0,0-1.47,5.42,1.65,1.65,0,0,0,1,1.57c.78.31,1.27-.28,1.66-.79C83.16,78,83.39,76.16,83.74,74.44Z"/><path class="cls-2" d="M50.53,70c2.19.07,4.32.87,6.61.11,1.44-.48,1.52.71,1.19,1.86a21.59,21.59,0,0,0-1.22,6.31c0,1.09.12,2.14,1.68,1.52.39-.16.82-.39,1.13,0s.09.92-.15,1.38a5,5,0,0,1-6.89,1.69,1.91,1.91,0,0,0-2.37-.36c-3.65,1.78-6.42,1.44-7.83-.78C41,79,41.87,74.21,44.54,72A8.28,8.28,0,0,1,50.53,70Zm1.57,4.48c-.06-.87.25-1.85-.73-2.26s-1.73.36-2.23,1.11a9.34,9.34,0,0,0-1.47,5.42,1.64,1.64,0,0,0,1,1.57c.77.31,1.27-.28,1.66-.79C51.53,78,51.75,76.16,52.1,74.44Z"/><path class="cls-2" d="M67.42,69.4c.74,0,1.27.21,1.32,1.1,0,.43.23.53.65.21a8.66,8.66,0,0,1,1.94-1.1,2.12,2.12,0,0,1,2.48.59,2.57,2.57,0,0,1,.25,2.6,2.65,2.65,0,0,1-2.29,2.12,1.84,1.84,0,0,1-1.92-.64.56.56,0,0,0-1,0,9.57,9.57,0,0,0-1.08,2,19.59,19.59,0,0,0-1.22,5.13c-.08,1.23-.28,1.3-1.51,1.35-.86,0-1.72.14-2.57.18-1.5.07-1.7-.26-1.52-1.35.21-1.34.54-2.66.77-4,.35-2,1.11-3.94.75-6-.19-1.08,0-1.38,1.1-1.69A27.68,27.68,0,0,1,67.42,69.4Z"/><path class="cls-2" d="M136,78.32c-.14-6.76,6.89-9.19,11.43-7.7,2.57.84,2.7,4.18.3,6a10,10,0,0,1-3.81,1.77c-.51.13-1.28.14-1.22,1a1.55,1.55,0,0,0,1.1,1.25,4,4,0,0,0,4-.54c1.4-.88,2.62,2.55.54,3.16C141.26,84.76,135.67,82.65,136,78.32Zm6.69-1.95c.67.32,2.31-1.29,2.95-2.38.27-.46.39-.92-.07-1.32a1,1,0,0,0-1.34,0C143.15,73.57,142,76.06,142.65,76.37Z"/><path class="cls-2" d="M88.07,56.46c-3.87,0-7.21.72-9.5,3.89-.36.49-.74,1-1.39.81s-.76-1-.84-1.67a10.6,10.6,0,0,1,8.09-11.55c4.49-1.11,8.57.08,12.41,2.28,3.23,1.86,6.37,3.89,9.49,5.94,1.34.88,2,.82,2.72-.75a19.57,19.57,0,0,1,5.43-7.35,10.25,10.25,0,0,1,6.87-2.51c3.68.1,6.3,1.86,7,4.54a9,9,0,0,1-3.82,9.8A15.76,15.76,0,0,1,114,62.11c-1.58-.19-2.32.09-2.79,1.79-1.13,4.16-2.3,8.3-3.07,12.54-.56,3,0,3.5,2.84,2.56.42-.14.84-.27,1.16.06s.07.75-.1,1.13c-1.31,3-6,4.45-8.48,2.51a1.66,1.66,0,0,0-2.33-.08,6.13,6.13,0,0,1-1.58.73c-4.19,1.25-7-.82-6.88-5.14.09-5.35,3.83-8.76,9.3-8.19,1.65.17,1.93-.34,2.44-1.72s2.54-5.21,1.48-7c-.94-1.55-12.42-4.19-15.44-4.72A19.45,19.45,0,0,0,88.07,56.46Zm28.09,3c1.71-.19,3.8-.67,4.92-2.86a2.63,2.63,0,0,0-.2-3.24c-1-1-2.26-.86-3.42-.16a10,10,0,0,0-3.24,3.7C113,58.86,113.25,59.25,116.16,59.42Zm-13.24,15c0-1,.25-2-.82-2.27s-1.55.39-2,1.1a11.7,11.7,0,0,0-1.51,5.41c-.06.69.06,1.54,1,1.75a1.56,1.56,0,0,0,1.66-.84A12.62,12.62,0,0,0,102.92,74.45Z"/><path class="cls-2" d="M57.47,52.69c-1.8,1.08-7.81-4.8-11.8-1.49,4,1.67,9.15,5.55,9.17,10.88S48.52,68,44.71,68.3c-.56,0-1.26.2-1.56-.46-.4-.86.39-1.16.9-1.51a7.94,7.94,0,0,0,3.5-7.53,4.56,4.56,0,0,0-.16-1.23c-.57-1.49-1.25-3.44-2.85-3.42-1.35,0-1.11,1.23-1.42,3.33A143.13,143.13,0,0,1,40,73.88a27.9,27.9,0,0,1-3.45,8C33,87.36,24.4,88.79,20.35,86s-4.4-5.72-3.11-8.91c1.54-3.19,5.38-3.27,7.65-1.15a4.83,4.83,0,0,0,6.06.52,10,10,0,0,0,3.17-4.68C36.5,66,37.6,59.83,39.87,54c.27-.69.19-1.09-.65-1.16-2.62-.23-5.17-.07-7.42,1.48-1.8,1.25-3.3,2.59-3.28,5.28s1.83,6,.53,7.18c-.83.71-5.87-.93-7.67-5.22-.86-2.05,0-4.6,2.37-7.07,3.38-3.53,7.94-4.14,12.53-4.6a6.22,6.22,0,0,1,1.43,0l.92.1c-.25-.24-.5-.46-.74-.67a4.28,4.28,0,0,0-1.1-.58,7.89,7.89,0,0,0-8.27.64c-.52.35-1.08,1-1.74.31-.51-.51-.13-1.11.12-1.62,1.63-3.46,4.38-9.2,9.37-7.32,3.15,1.19,5,4.09,6,7.16.58-1.76,1.24-3.65,1.71-3.62s.35,2.41.09,4.56a7.27,7.27,0,0,0,.88-.81,6.68,6.68,0,0,1,9.73.34C56.49,50.22,58.65,52,57.47,52.69Z"/></g></g></g></g></svg>