<svg width="175" height="175" viewBox="0 0 175 175">
  <g fill="none" fill-rule="nonzero">
    <circle cx="87.36" cy="87.36" r="87.08" fill="#E5BB49"/>
    <path fill="#FAF2EA" d="M126.06 81.86c.18-.61-.6-1.92-1.24-2.53-1.7-1.62-3.88-3.06-2.4-5.8 1.48-2.74 4.1-2.47 6.59-2.38 1 .07 1.96.46 2.72 1.11.73.76.94 1.87.55 2.84-.48.79-.93 1.54-2 1.07-1.07-.47-1.63-3-2.15-3s-.53 1.47-.1 2.21c.55.7 1.23 1.3 2 1.77 2.95 2.32 2.63 6.06-.9 7.14a15 15 0 01-6.49 0 2.66 2.66 0 01-2.16-3.38c.17-.72.68-1.79 1.61-1.8.84.03 1.62.45 2.11 1.14.7.7.45 1.67.78 1.95a.65.65 0 001.08-.34zM135.69 143.79c-8.83.05-14-6.51-11.32-13.45 1.28-3.33 4.87-5.8 8.1-5.56.49 0 1 0 1.31.51.31.51-.1.7-.39 1-2.09 2.41-2.2 4.4-.38 6a5.32 5.32 0 007.35-1 9.06 9.06 0 001.3-7.15 16.43 16.43 0 00-1.8-4.61c-.54-.93-1.01-1.9-1.43-2.89-.81-2.19-1.12-4.39.72-6.27a7.71 7.71 0 017.48-1.33 2.62 2.62 0 011.74 3.18 1.74 1.74 0 01-2 1.44c-.85-.09-1.59-.44-1.54-1.57 0-.45.55-1.32-.51-1.27-.67 0-.81.72-.89 1.31a7.27 7.27 0 001.23 4.48c1.73 3.11 3.51 6.18 4.1 9.79 1.28 7.72-3 15.1-10.09 17-.98.2-1.98.33-2.98.39z"/>
    <path fill="#FAF2EA" d="M124.27 108.6c1.07.12 2.33-.37 2.64 1 .31 1.37 1 .63 1.5.28a7.13 7.13 0 014.22-1.26c2.31.08 3.38 1.22 3.06 3.48-.22 1.47-.62 2.91-.92 4.37-.3 1.46-.35 2.7 1.76 1.89.42-.16.9-.28 1.08.15.08.4.01.8-.19 1.15-1 2.08-4.42 3.28-6.74 2.4-1.87-.69-2.54-2.59-1.84-5.29.25-1 .56-1.91.86-2.85.2-.59.29-1.19-.29-1.57-.58-.38-1.27 0-1.71.51-1.7 2.06-2.29 4.56-2.74 7.11-.35 2-2.07 2.94-4.7 2.35-2.12-.47-1.1-2-.91-3.21.45-2.77 1.33-5.44 1.28-8.32-.03-2.45 2.28-1.79 3.64-2.19zM115.66 71.23c2-.21 2.53.78 2.13 2.51-.4 1.73-.84 3.3-1.11 5-.21 1.32-.45 2.85 1.93 2 1.25-.44 1.23.33.86 1.16-.87 2-3.86 3.16-6.43 2.57-2.4-.54-2.7-2.23-2.64-4.28.08-2.51 1.1-4.84 1.28-7.38.13-1.76 2.47-1.43 3.98-1.58zM113 68.05a3.16 3.16 0 013.16-3.35c1.62 0 2.47.73 2.44 2.37 0 1.8-1.39 3.3-3.18 3.45a2.21 2.21 0 01-2.42-2.47zM79.49 70.88c2.19.07 4.31.87 6.6.12 1.45-.48 1.52.71 1.19 1.85a22.33 22.33 0 00-1.22 6.32c0 1.09.12 2.13 1.69 1.51.39-.15.81-.38 1.12 0 .31.38.1.92-.15 1.37a5 5 0 01-6.89 1.69c-.61-.66-1.6-.8-2.37-.35-3.64 1.78-6.41 1.43-7.83-.78-1.71-2.68-.8-7.51 1.86-9.77a8.39 8.39 0 016-1.96zm1.57 4.48c-.06-.86.25-1.84-.73-2.26-.98-.42-1.73.36-2.23 1.12a9.26 9.26 0 00-1.47 5.42c-.02.68.37 1.3 1 1.56.78.31 1.27-.28 1.66-.78 1.19-1.5 1.42-3.33 1.77-5.06zM91.05 116.7c-.14-6.75 6.88-9.18 11.42-7.7 2.58.84 2.71 4.18.31 6a10.18 10.18 0 01-3.81 1.78c-.51.12-1.28.14-1.23 1 .1.6.52 1.08 1.1 1.25a4 4 0 004-.54c1.4-.88 2.62 2.55.54 3.16-7.03 1.49-12.62-.65-12.33-4.95zm6.68-1.94c.68.31 2.32-1.3 3-2.39.27-.46.38-.92-.07-1.32a1 1 0 00-1.34 0c-1.08.95-2.26 3.39-1.59 3.71zM47.86 70.88c2.19.07 4.31.87 6.6.12 1.45-.48 1.52.71 1.19 1.85a22 22 0 00-1.22 6.32c0 1.09.12 2.13 1.69 1.51.38-.15.81-.38 1.12 0 .31.38.09.92-.15 1.37a5 5 0 01-6.89 1.69c-.61-.66-1.6-.8-2.37-.35-3.64 1.78-6.42 1.43-7.83-.78-1.71-2.68-.81-7.51 1.86-9.77a8.38 8.38 0 016-1.96zm1.57 4.48c-.07-.86.24-1.84-.74-2.26-.98-.42-1.72.36-2.23 1.12A9.33 9.33 0 0045 79.64c-.02.68.37 1.3 1 1.56.78.31 1.27-.28 1.66-.78 1.19-1.5 1.42-3.33 1.77-5.06zM56.64 108.52c2.19.08 4.31.87 6.6.12 1.44-.48 1.52.71 1.19 1.85a21.65 21.65 0 00-1.22 6.32c0 1.09.12 2.13 1.69 1.51.38-.15.81-.38 1.12 0 .31.38.09.92-.15 1.37a5 5 0 01-6.87 1.72c-.61-.66-1.6-.8-2.37-.35-3.64 1.78-6.42 1.43-7.83-.78-1.71-2.68-.81-7.5 1.86-9.77a8.38 8.38 0 015.98-1.99zm1.57 4.48c-.07-.86.24-1.84-.74-2.25-.98-.41-1.72.35-2.23 1.11a9.33 9.33 0 00-1.46 5.42c-.02.68.38 1.3 1 1.57.78.31 1.27-.28 1.66-.79 1.19-1.5 1.42-3.33 1.77-5.06z"/>
    <path fill="#FAF2EA" d="M61.79 99.94c0 5.47-6.49 7-10.3 7.33-.56 0-1.26.2-1.56-.46-.4-.86.39-1.16.9-1.52a8.45 8.45 0 003.5-7.52c0-1.47-1.4-4.67-3-4.65-1.35 0-1.21 1.79-1.42 3.33-.68 5.52-1.72 11-3.1 16.39a28 28 0 01-3.45 8c-3.56 5.51-11.32 7.3-16.71 3.85a9.28 9.28 0 01-3.27-11.28c1.53-3.79 6.57-6.69 10.33-5.91.63.13 1.42.18 1.56 1 .14.82-.78.94-1.31 1.24-2.52 1.45-3.42 3.46-2.28 5.2 1.14 1.74 4 2 6.06.52a10.07 10.07 0 003.17-4.68c2.39-6.61 3-9 5.16-16.15.27-.81.44-1.66.51-2.51 0-.56-.17-1.19-.72-1.28a1 1 0 00-1 1.14c.13 1.25-.74 1.63-1.71 1.64A1.75 1.75 0 0141.27 92c-.22-1.58.21-3.21 5-3.46s15.52 1.96 15.52 11.4zM112.71 108.55c.74 0 1.28.2 1.32 1.1 0 .43.23.53.65.21.6-.45 1.25-.82 1.94-1.1a2.12 2.12 0 012.48.59c.55.76.65 1.75.25 2.6a2.65 2.65 0 01-2.29 2.12 1.84 1.84 0 01-1.92-.64.56.56 0 00-1 0c-.44.62-.8 1.3-1.08 2a19.5 19.5 0 00-1.22 5.13c-.08 1.23-.28 1.3-1.51 1.35-.86 0-1.71.14-2.57.18-1.5.07-1.7-.27-1.52-1.35.21-1.34.54-2.66.78-4 .34-2 1.1-4 .74-6-.18-1.09 0-1.38 1.1-1.69 1.27-.26 2.56-.42 3.85-.5zM64.74 70.33c.74 0 1.28.2 1.32 1.09 0 .44.23.53.66.22.6-.45 1.24-.82 1.93-1.1a2.11 2.11 0 012.48.59c.55.75.65 1.74.26 2.59a2.67 2.67 0 01-2.3 2.13 1.86 1.86 0 01-1.92-.65.56.56 0 00-1 0c-.44.64-.8 1.33-1.08 2.06a19.5 19.5 0 00-1.22 5.13c-.08 1.22-.28 1.3-1.51 1.35-.86 0-1.71.14-2.57.18-1.5.07-1.69-.27-1.52-1.36.21-1.34.55-2.66.78-4 .35-2 1.11-4 .75-6-.19-1.08 0-1.37 1.09-1.68 1.27-.28 2.55-.46 3.85-.55zM99.76 106.09a21.19 21.19 0 01-11.35 3.24 4 4 0 00-1.76.36l-.21.13a3 3 0 00-1.19 2.05c-.32 1.56-.64 3.12-.91 4.69-.25.8.04 1.66.72 2.14.78.49 1.34-.12 2-.47.66-.35 1.2-1.28 1.83-.45.5.68-.34 1.32-.82 1.81-1.46 1.5-3.12 2.63-4.44 2.58-3.37 0-4.65-1.29-4.67-3.75.14-2.03.47-4.04 1-6 .16-.9.69-1.8.24-2.66a11 11 0 00-3.22-.48c-1.92 0-2.8.82-3.15 2.53-.35 1.71-.65 3.13-.92 4.7-.25.8.04 1.66.72 2.14.79.49 1.34-.12 1.95-.48.61-.36 1.21-1.27 1.83-.44.62.83-.34 1.32-.82 1.81-1.46 1.49-3.11 2.63-4.44 2.58-3.36 0-4.65-1.29-4.66-3.75.14-2.03.47-4.04 1-6 .22-1.15 1-2.3-.37-3.35-.41-.3-.22-1 .5-1.07a7.39 7.39 0 004.83-3.44c.38-.53.82-1.21 1.57-.79.75.42.38 1.14.16 1.74-.6 1.63.3 1.84 1.62 2 2.42.2 2.66 1 4.92 0a8.72 8.72 0 003.16-2.92c.38-.53.83-1.21 1.57-.79.74.42.38 1.14.16 1.74-.59 1.63.16 1.63 1.45 1.34a14.09 14.09 0 0010.26-11c.4-2.37 1.16-2.64 3.09-1.1 3.73 3.03 2.95 8.4-1.65 11.36zM133.29 79.24c-.15-6.75 6.88-9.18 11.42-7.7 2.58.84 2.71 4.18.31 6a10.18 10.18 0 01-3.81 1.78c-.51.12-1.28.14-1.23.95.1.6.52 1.08 1.1 1.25a4 4 0 004-.54c1.4-.88 2.62 2.55.54 3.16-7.03 1.55-12.62-.57-12.33-4.9zM140 77.3c.67.31 2.31-1.3 3-2.39.27-.46.38-.92-.08-1.31a1 1 0 00-1.33 0c-1.11.89-2.29 3.4-1.59 3.7zM85.4 57.38c-3.87.05-7.22.72-9.51 3.89-.35.49-.74 1-1.39.81-.65-.19-.76-1-.84-1.66a10.61 10.61 0 018.09-11.56c4.5-1.11 8.58.08 12.41 2.29 3.24 1.85 6.38 3.88 9.49 5.94 1.34.88 2 .81 2.72-.76A19.56 19.56 0 01111.8 49a10.17 10.17 0 016.87-2.51c3.68.09 6.31 1.86 7 4.53a9 9 0 01-3.82 9.8A15.72 15.72 0 01111.33 63c-1.58-.18-2.33.09-2.79 1.79-1.14 4.16-2.3 8.3-3.08 12.54-.55 3 0 3.5 2.85 2.56.42-.14.83-.26 1.15.07.32.33.07.75-.09 1.12-1.31 3-6 4.45-8.49 2.51a1.66 1.66 0 00-2.33-.07 6 6 0 01-1.57.72c-4.2 1.25-7-.82-6.88-5.14.09-5.34 3.82-8.76 9.29-8.19 1.65.18 1.93-.34 2.45-1.71.52-1.37 2.54-5.22 1.47-7-.94-1.55-12.41-4.19-15.44-4.71a19.5 19.5 0 00-2.47-.11zm28.09 3c1.71-.18 3.79-.66 4.92-2.85.68-1 .6-2.34-.21-3.24-1-1-2.26-.87-3.41-.17a9.91 9.91 0 00-3.25 3.7c-1.2 1.97-.97 2.35 1.95 2.52v.04zm-13.25 15c0-1 .25-2-.81-2.27s-1.56.39-2 1.1a11.69 11.69 0 00-1.5 5.41c-.06.69 0 1.54 1 1.76.68.11 1.35-.23 1.66-.84a12.42 12.42 0 001.65-5.17v.01zM54.79 53.61C53 54.69 47 48.81 43 52.12c4 1.67 9.15 5.55 9.17 10.88.02 5.33-6.33 5.9-10.17 6.22-.56 0-1.26.2-1.56-.46-.4-.86.39-1.16.9-1.51a7.94 7.94 0 003.5-7.53c0-.42-.05-.83-.16-1.23-.57-1.49-1.25-3.44-2.85-3.42-1.35 0-1.11 1.23-1.42 3.33-.7 5.52-1.74 11-3.1 16.4a27.9 27.9 0 01-3.45 8c-3.56 5.52-12.17 6.95-16.22 4.16-4.05-2.79-4.37-5.76-3.08-8.96 1.54-3.19 5.38-3.27 7.65-1.15a4.83 4.83 0 006.06.52 10 10 0 003.17-4.68c2.38-5.76 3.48-12 5.75-17.75.27-.69.19-1.09-.65-1.16-2.62-.23-5.17-.07-7.42 1.48-1.8 1.25-3.3 2.59-3.28 5.28.02 2.69 1.83 6 .53 7.18-.82.72-5.87-.93-7.67-5.22-.86-2 0-4.6 2.37-7.07 3.38-3.53 7.94-4.14 12.53-4.6.48-.05.95-.05 1.43 0L36 51a4.28 4.28 0 00-1.84-1.25 7.89 7.89 0 00-8.27.64c-.52.35-1.08 1-1.74.31-.51-.51-.13-1.11.12-1.62 1.63-3.46 4.38-9.2 9.37-7.32 3.15 1.19 5 4.09 6 7.16.58-1.76 1.24-3.65 1.71-3.62.47.03.35 2.41.09 4.56.32-.25.6-.52.88-.81a6.68 6.68 0 019.73.34c1.76 1.75 3.95 3.51 2.74 4.22z"/>
  </g>
</svg>