<?xml version="1.0" encoding="UTF-8"?>
<svg width="300px" height="94px" viewBox="0 0 300 94" version="1.1" xmlns="http://www.w3.org/2000/svg" xmlns:xlink="http://www.w3.org/1999/xlink">
    <!-- Generator: Sketch 53.2 (72643) - https://sketchapp.com -->
    <title>PP-Logo-Wide-yellow</title>
    <desc>Created with Sketch.</desc>
    <g id="PP-Logo-Wide-yellow" stroke="none" stroke-width="1" fill="none" fill-rule="evenodd">
        <g transform="translate(5.000000, 5.000000)" fill-rule="nonzero">
            <rect id="Rectangle" fill="#F9B318" x="0" y="0" width="290.06" height="84.1" rx="12"></rect>
            <path d="M265.93,75 C257.1,75.06 251.93,68.5 254.61,61.56 C255.89,58.22 259.49,55.75 262.71,55.99 C263.21,55.99 263.71,55.99 264.02,56.51 C264.33,57.03 263.92,57.2 263.64,57.51 C261.54,59.93 261.43,61.92 263.26,63.51 C265.572144,65.225684 268.831095,64.7816852 270.6,62.51 C272.013246,60.4129668 272.484643,57.8202858 271.9,55.36 C271.539634,53.7417341 270.936115,52.1874219 270.11,50.75 C269.566484,49.8196435 269.085423,48.8541812 268.67,47.86 C267.87,45.68 267.55,43.47 269.4,41.59 C271.485323,39.8692059 274.318894,39.3647013 276.87,40.26 C278.20649,40.691598 278.974151,42.0909345 278.62,43.45 C278.456705,44.3945453 277.567568,45.0347237 276.62,44.89 C275.76,44.8 275.03,44.45 275.08,43.32 C275.08,42.87 275.63,42 274.57,42.05 C273.89,42.05 273.75,42.76 273.68,43.36 C273.585277,44.9434917 274.013968,46.5141864 274.9,47.83 C276.6,51 278.38,54 279,57.65 C280.27,65.37 276,72.75 268.9,74.6 C267.92284,74.8156572 266.929398,74.9494541 265.93,75 L265.93,75 Z" id="Path" fill="#FAF2EA"></path>
            <path d="M254.51,39.12 C255.58,39.24 256.84,38.75 257.16,40.12 C257.48,41.49 258.16,40.74 258.66,40.4 C259.891697,39.5389715 261.367796,39.0971936 262.87,39.14 C265.18,39.22 266.25,40.36 265.93,42.61 C265.72,44.08 265.31,45.53 265.01,46.99 C264.71,48.45 264.67,49.68 266.78,48.88 C267.2,48.72 267.68,48.59 267.86,49.03 C267.932926,49.4249165 267.861974,49.8328923 267.66,50.18 C266.66,52.26 263.25,53.45 260.92,52.58 C259.06,51.88 258.39,49.99 259.08,47.29 C259.33,46.29 259.64,45.38 259.95,44.43 C260.14,43.84 260.23,43.24 259.65,42.86 C259.07,42.48 258.39,42.86 257.95,43.38 C256.24,45.44 255.65,47.94 255.2,50.48 C254.85,52.48 253.14,53.42 250.5,52.84 C248.39,52.37 249.4,50.84 249.6,49.62 C250.04,46.85 250.92,44.19 250.88,41.3 C250.84,38.86 253.16,39.49 254.51,39.12 Z" id="Path" fill="#FAF2EA"></path>
            <path d="M243,39.78 C243.74,39.78 244.28,39.99 244.32,40.88 C244.32,41.31 244.55,41.41 244.98,41.1 C245.568237,40.6441484 246.218009,40.2738119 246.91,40 C247.775471,39.6186327 248.788986,39.8597512 249.39,40.59 C249.943964,41.3407559 250.043683,42.3341135 249.65,43.18 C249.423734,44.310408 248.495063,45.1664004 247.35,45.3 C246.639532,45.4921757 245.883069,45.2400215 245.43,44.66 C245.334795,44.471244 245.141407,44.3521904 244.93,44.3521904 C244.718593,44.3521904 244.525205,44.471244 244.43,44.66 C243.988176,45.3005603 243.625537,45.9922605 243.35,46.72 C242.712939,48.3668748 242.302521,50.0926496 242.13,51.85 C242.05,53.07 241.85,53.14 240.62,53.19 C239.76,53.19 238.91,53.34 238.05,53.38 C236.55,53.44 236.36,53.11 236.53,52.02 C236.74,50.68 237.08,49.36 237.31,48.02 C237.66,46.02 238.42,44.07 238.06,42.02 C237.87,40.94 238.06,40.64 239.15,40.33 C240.418966,40.0572725 241.705429,39.8734922 243,39.78 L243,39.78 Z" id="Path" fill="#FAF2EA"></path>
            <path d="M221.29,47.94 C221.15,41.18 228.18,38.75 232.72,40.24 C235.29,41.08 235.42,44.42 233.02,46.24 C231.890524,47.096681 230.591811,47.7034286 229.21,48.02 C228.7,48.15 227.93,48.16 227.99,49.02 C228.08274,49.6149596 228.51166,50.1023685 229.09,50.27 C230.423058,50.8252285 231.951891,50.6188362 233.09,49.73 C234.49,48.85 235.71,52.28 233.63,52.89 C226.59,54.38 221,52.27 221.29,47.94 Z M228,46 C228.67,46.31 230.31,44.71 231,43.62 C231.27,43.16 231.39,42.69 230.93,42.3 C230.549381,41.9564815 229.970619,41.9564815 229.59,42.3 C228.48,43.19 227.31,45.68 228,46 Z" id="Shape" fill="#FAF2EA"></path>
            <path d="M230,37.33 C226.596789,39.4644934 222.65716,40.58812 218.64,40.57 C218.03654,40.5514897 217.437152,40.6747923 216.89,40.93 L216.65,41.07 C216.01165,41.5549071 215.593924,42.2751258 215.49,43.07 C215.17,44.64 214.85,46.2 214.58,47.77 C214.326995,48.5588606 214.61428,49.4207143 215.29,49.9 C216.08,50.4 216.64,49.79 217.29,49.43 C217.94,49.07 218.49,48.16 219.11,48.99 C219.62,49.67 218.78,50.3 218.29,50.8 C216.84,52.29 215.18,53.42 213.85,53.38 C210.49,53.38 209.2,52.08 209.19,49.62 C209.33206,47.5927842 209.666905,45.58371 210.19,43.62 C210.36,42.72 210.88,41.82 210.43,40.96 C209.390018,40.6404026 208.307981,40.4786027 207.22,40.48 C205.29,40.48 204.41,41.3 204.06,43.01 C203.75,44.57 203.42,46.14 203.15,47.71 C202.895667,48.501078 203.187858,49.3654771 203.87,49.84 C204.65,50.34 205.21,49.73 205.82,49.37 C206.43,49.01 207.03,48.09 207.65,48.93 C208.15,49.61 207.31,50.24 206.83,50.74 C205.37,52.23 203.72,53.36 202.39,53.31 C199.03,53.31 197.74,52.02 197.73,49.56 C197.866156,47.5320913 198.201096,45.5224506 198.73,43.56 C198.95,42.41 199.73,41.25 198.36,40.21 C197.95,39.9 198.14,39.21 198.86,39.13 C200.878868,38.712527 202.630592,37.468549 203.69,35.7 C204.07,35.17 204.51,34.49 205.26,34.91 C206.01,35.33 205.63,36.05 205.42,36.64 C204.82,38.27 205.72,38.49 207.04,38.64 C209.46,38.85 209.7,39.64 211.96,38.64 C213.240266,37.9497381 214.326796,36.9491674 215.12,35.73 C215.5,35.2 215.94,34.52 216.69,34.94 C217.44,35.36 217.07,36.08 216.85,36.68 C216.25,38.3 217,38.31 218.29,38.01 C223.55136,36.6359953 227.54995,32.353182 228.56,27.01 C228.96,24.65 229.72,24.38 231.65,25.92 C235.39,29 234.61,34.36 230,37.33 Z" id="Path" fill="#FAF2EA"></path>
            <path d="M186.88,39.76 C189.07,39.83 191.19,40.63 193.48,39.87 C194.93,39.39 195,40.58 194.67,41.73 C193.959092,43.765976 193.551398,45.8954152 193.46,48.05 C193.46,49.14 193.57,50.18 195.14,49.56 C195.53,49.4 195.95,49.18 196.27,49.56 C196.59,49.94 196.36,50.48 196.11,50.93 C195.423483,52.071186 194.310065,52.8913372 193.016636,53.2085935 C191.723207,53.5258497 190.356655,53.3139929 189.22,52.62 C188.611151,51.9609917 187.627077,51.8115121 186.85,52.26 C183.21,54.04 180.44,53.7 179.02,51.49 C177.31,48.81 178.22,43.98 180.88,41.72 C182.546513,40.3067842 184.700589,39.6031196 186.88,39.76 L186.88,39.76 Z M188.45,44.24 C188.39,43.37 188.7,42.39 187.72,41.98 C186.74,41.57 185.99,42.34 185.49,43.09 C184.442951,44.7020031 183.922311,46.5993673 184,48.52 C183.976606,49.197326 184.374769,49.8184592 185,50.08 C185.77,50.39 186.26,49.8 186.65,49.29 C187.87,47.79 188.1,46 188.45,44.24 L188.45,44.24 Z" id="Shape" fill="#FAF2EA"></path>
            <path d="M192,31.18 C192,36.65 185.51,38.18 181.7,38.51 C181.14,38.51 180.44,38.71 180.14,38.05 C179.74,37.19 180.53,36.89 181.04,36.53 C183.441327,34.8077716 184.768511,31.9562222 184.54,29.01 C184.49,27.54 183.14,24.34 181.54,24.36 C180.19,24.36 180.32,26.14 180.12,27.69 C179.431743,33.2129906 178.396361,38.6871572 177.02,44.08 C176.294452,46.9103399 175.130364,49.6096746 173.57,52.08 C170.01,57.59 162.25,59.38 156.86,55.93 C153.226769,53.4256727 151.859504,48.7092376 153.59,44.65 C155.12,40.86 160.16,37.96 163.92,38.74 C164.55,38.87 165.34,38.92 165.48,39.74 C165.62,40.56 164.7,40.68 164.17,40.98 C161.65,42.43 160.75,44.44 161.89,46.18 C163.03,47.92 165.89,48.18 167.95,46.7 C169.446007,45.4732559 170.556966,43.841534 171.15,42 C173.54,35.39 174.15,33 176.31,25.85 C176.575851,25.0357013 176.74698,24.1934794 176.82,23.34 L176.82,23.34 C176.82,22.78 176.65,22.15 176.09,22.05 C175.796624,22.0466777 175.51659,22.1723599 175.324071,22.3937572 C175.131551,22.6151544 175.045972,22.9099277 175.09,23.2 C175.22,24.44 174.35,24.83 173.38,24.84 C172.915575,24.875789 172.456044,24.7249475 172.103177,24.4208809 C171.75031,24.1168144 171.533226,23.6846158 171.5,23.22 C171.28,21.64 171.7,20.01 176.5,19.76 C181.3,19.51 192,21.74 192,31.18 Z" id="Path" fill="#FAF2EA"></path>
            <path d="M130.67,47.79 C130.53,41.03 137.56,38.6 142.1,40.09 C144.67,40.93 144.81,44.27 142.41,46.09 C141.277729,46.94204 139.980045,47.548307 138.6,47.87 C138.09,48 137.32,48.01 137.37,48.87 C137.467323,49.4628012 137.894383,49.9480974 138.47,50.12 C139.803058,50.6752285 141.331891,50.4688362 142.47,49.58 C143.87,48.7 145.09,52.13 143.01,52.74 C136,54.23 130.39,52.12 130.67,47.79 Z M137.36,45.84 C138.03,46.15 139.67,44.55 140.31,43.46 C140.59,43 140.7,42.54 140.24,42.14 C139.859381,41.7964815 139.280619,41.7964815 138.9,42.14 C137.87,43 136.69,45.53 137.36,45.84 L137.36,45.84 Z" id="Shape" fill="#FAF2EA"></path>
            <path d="M123.45,50.4 C123.63,49.8 122.85,48.48 122.21,47.87 C120.51,46.25 118.32,44.87 119.81,42.07 C121.3,39.27 123.91,39.6 126.4,39.7 C127.401136,39.765635 128.354679,40.1512592 129.12,40.8 C129.847053,41.5555245 130.062434,42.6676734 129.67,43.64 C129.19,44.44 128.74,45.19 127.67,44.72 C126.6,44.25 126.04,41.72 125.52,41.72 C125,41.72 124.99,43.19 125.42,43.93 C125.977571,44.6328523 126.65458,45.232005 127.42,45.7 C130.36,48.01 130.05,51.7 126.52,52.83 C124.383274,53.3098351 122.166726,53.3098351 120.03,52.83 C119.267771,52.719711 118.591231,52.2832727 118.176505,51.6343043 C117.76178,50.9853359 117.649903,50.1880478 117.87,49.45 C118.04,48.73 118.55,47.67 119.48,47.66 C120.320172,47.6903372 121.099098,48.107487 121.59,48.79 C122.29,49.5 122.04,50.46 122.37,50.79 C122.548214,50.9515098 122.801047,51.0014109 123.027261,50.9197225 C123.253475,50.8380341 123.416092,50.6381094 123.45,50.4 L123.45,50.4 Z" id="Path" fill="#FAF2EA"></path>
            <path d="M113.05,39.77 C115.05,39.56 115.58,40.56 115.18,42.29 C114.78,44.02 114.34,45.59 114.07,47.29 C113.85,48.62 113.62,50.14 116,49.29 C117.25,48.84 117.23,49.61 116.86,50.45 C115.99,52.45 112.99,53.6 110.43,53.02 C107.87,52.44 107.73,50.78 107.79,48.74 C107.87,46.22 108.89,43.89 109.07,41.35 C109.2,39.59 111.54,39.92 113.05,39.77 Z" id="Path" fill="#FAF2EA"></path>
            <path d="M110.35,36.6 C110.297676,35.728591 110.607027,34.8741738 111.2051,34.2382486 C111.803172,33.6023235 112.637022,33.2411844 113.51,33.24 C115.13,33.24 115.98,33.98 115.95,35.62 C115.9365,37.4172766 114.560227,38.9104027 112.77,39.07 C112.100366,39.1390735 111.435761,38.8991682 110.964637,38.4183109 C110.493514,37.9374536 110.267248,37.2680817 110.35,36.6 Z" id="Path" fill="#FAF2EA"></path>
            <path d="M82.79,25.92 C78.92,25.98 75.57,26.65 73.28,29.82 C72.93,30.3 72.54,30.82 71.89,30.63 C71.24,30.44 71.13,29.63 71.05,28.96 C70.4233588,23.6144747 73.9021508,18.6478433 79.14,17.41 C83.63,16.3 87.72,17.49 91.55,19.69 C94.79,21.55 97.93,23.58 101.04,25.63 C102.38,26.51 103.04,26.45 103.76,24.88 C104.9656,22.0363842 106.826165,19.5179398 109.19,17.53 C111.090477,15.8697217 113.536636,14.9688801 116.06,15 C119.74,15.1 122.37,16.86 123.06,19.54 C124.026643,23.2882453 122.488319,27.2347298 119.24,29.34 C116.104751,31.2876648 112.384144,32.070019 108.73,31.55 C107.14,31.37 106.4,31.65 105.94,33.35 C104.8,37.5 103.63,41.65 102.86,45.89 C102.31,48.89 102.86,49.38 105.71,48.44 C106.13,48.31 106.54,48.18 106.86,48.51 C107.18,48.84 106.93,49.26 106.77,49.64 C105.46,52.64 100.77,54.09 98.28,52.15 C97.6583164,51.4852957 96.6158107,51.4495015 95.95,52.07 C95.4620305,52.3831099 94.9338954,52.6286759 94.38,52.8 C90.18,54.05 87.38,51.98 87.49,47.66 C87.59,42.31 91.32,38.9 96.79,39.47 C98.44,39.64 98.72,39.12 99.24,37.75 C99.76,36.38 101.78,32.53 100.71,30.75 C99.77,29.19 88.3,26.56 85.27,26.03 C84.4461321,25.9457327 83.6180932,25.9090052 82.79,25.92 Z M110.88,28.92 C112.59,28.74 114.67,28.26 115.8,26.07 C116.484558,25.0705286 116.39785,23.7327412 115.59,22.83 C114.59,21.78 113.33,21.97 112.18,22.66 C110.806858,23.6050283 109.690063,24.8764562 108.93,26.36 C107.73,28.33 108,28.72 110.88,28.88 L110.88,28.92 Z M97.63,43.92 C97.63,42.92 97.88,41.92 96.82,41.64 C95.76,41.36 95.26,42.04 94.82,42.75 C93.888036,44.4011235 93.3731375,46.254758 93.32,48.15 C93.25,48.85 93.32,49.7 94.32,49.91 C95.0042084,50.0327989 95.687714,49.691046 96,49.07 C96.9173143,47.4949163 97.4740055,45.7360451 97.63,43.92 L97.63,43.92 Z" id="Shape" fill="#FAF2EA"></path>
            <path d="M76.88,39.42 C79.07,39.5 81.19,40.3 83.48,39.54 C84.93,39.06 85,40.25 84.67,41.39 C83.9602482,43.4266925 83.5493134,45.5554697 83.45,47.71 C83.45,48.8 83.57,49.85 85.14,49.22 C85.53,49.07 85.95,48.84 86.26,49.22 C86.57,49.6 86.35,50.14 86.11,50.6 C85.4234831,51.741186 84.3100655,52.5613372 83.0166361,52.8785935 C81.7232068,53.1958497 80.3566551,52.9839929 79.22,52.29 C78.595214,51.6506118 77.610519,51.5301217 76.85,52 C73.21,53.78 70.44,53.43 69.02,51.22 C67.31,48.54 68.22,43.72 70.88,41.45 C72.5373969,40.0144236 74.6914409,39.2856387 76.88,39.42 L76.88,39.42 Z M78.45,43.9 C78.39,43.04 78.7,42.06 77.72,41.65 C76.74,41.24 76,42 75.49,42.76 C74.4437366,44.3686377 73.9230747,46.262589 74,48.18 C73.9781427,48.8593495 74.3751115,49.4825905 75,49.75 C75.78,50.06 76.27,49.47 76.66,48.96 C77.87,47.46 78.1,45.63 78.45,43.9 L78.45,43.9 Z" id="Shape" fill="#FAF2EA"></path>
            <path d="M61.88,39.45 C62.62,39.45 63.15,39.66 63.2,40.55 C63.2,40.98 63.43,41.08 63.85,40.76 C64.4465538,40.3112518 65.0986261,39.9415201 65.79,39.66 C66.6557904,39.282178 67.6671043,39.5227728 68.27,40.25 C68.8203647,41.0065589 68.9161218,42.0024328 68.52,42.85 C68.3094317,43.9905896 67.3815897,44.8617076 66.23,45 C65.5196139,45.1894097 64.7646631,44.9377594 64.31,44.36 C64.2147951,44.171244 64.0214068,44.0521904 63.81,44.0521904 C63.5985932,44.0521904 63.4052049,44.171244 63.31,44.36 C62.8686661,44.9810989 62.5027633,45.6524802 62.22,46.36 C61.5847551,48.0178091 61.1744398,49.7532409 61,51.52 C60.92,52.75 60.71,52.82 59.49,52.87 C58.63,52.87 57.77,53.01 56.92,53.05 C55.42,53.12 55.22,52.79 55.39,51.7 C55.61,50.36 55.94,49.04 56.17,47.7 C56.52,45.7 57.28,43.76 56.92,41.7 C56.73,40.62 56.92,40.32 58.02,40.01 C59.2918979,39.7328002 60.581766,39.5456691 61.88,39.45 L61.88,39.45 Z" id="Path" fill="#FAF2EA"></path>
            <path d="M45.25,39.42 C47.44,39.5 49.56,40.3 51.85,39.54 C53.29,39.06 53.37,40.25 53.04,41.39 C52.3206933,43.4241082 51.9094831,45.5543119 51.82,47.71 C51.82,48.8 51.94,49.85 53.51,49.22 C53.89,49.07 54.32,48.84 54.63,49.22 C54.94,49.6 54.72,50.14 54.48,50.6 C53.7934831,51.741186 52.6800655,52.5613372 51.3866361,52.8785935 C50.0932068,53.1958497 48.7266551,52.9839929 47.59,52.29 C46.965214,51.6506118 45.980519,51.5301217 45.22,52 C41.58,53.78 38.8,53.43 37.39,51.22 C35.68,48.54 36.58,43.72 39.25,41.45 C40.9073969,40.0144236 43.0614409,39.2856387 45.25,39.42 L45.25,39.42 Z M46.82,43.9 C46.75,43.04 47.06,42.06 46.08,41.65 C45.1,41.24 44.36,42.01 43.85,42.76 C42.8185151,44.3739676 42.3087729,46.2662981 42.39,48.18 C42.3681427,48.8593495 42.7651115,49.4825905 43.39,49.75 C44.17,50.06 44.66,49.47 45.05,48.96 C46.24,47.46 46.47,45.63 46.82,43.9 L46.82,43.9 Z" id="Shape" fill="#FAF2EA"></path>
            <path d="M52.18,22.16 C50.38,23.24 44.37,17.36 40.38,20.67 C44.38,22.34 49.53,26.22 49.55,31.55 C49.57,36.88 43.23,37.45 39.42,37.77 C38.86,37.77 38.16,37.97 37.86,37.31 C37.46,36.45 38.25,36.15 38.76,35.8 C41.2507673,34.1486701 42.6033639,31.2386552 42.26,28.27 C42.2666445,27.8412495 42.2127806,27.4137048 42.1,27 C41.53,25.51 40.85,23.56 39.25,23.58 C37.9,23.58 38.14,24.8 37.83,26.91 C37.1214065,32.4330833 36.0862601,37.9093415 34.73,43.31 C34.0060179,46.1408743 32.8418274,48.8404465 31.28,51.31 C27.72,56.83 19.11,58.26 15.06,55.47 C11.01,52.68 10.66,49.75 11.95,46.56 C13.49,43.37 17.33,43.29 19.6,45.41 C21.2435265,46.9931275 23.7707935,47.2099887 25.66,45.93 C27.1447517,44.70732 28.2453954,43.082395 28.83,41.25 C31.21,35.49 32.31,29.3 34.58,23.5 C34.85,22.81 34.77,22.41 33.93,22.34 C31.31,22.11 28.76,22.27 26.51,23.82 C24.71,25.07 23.21,26.41 23.23,29.1 C23.25,31.79 25.06,35.1 23.76,36.28 C22.94,36.99 17.89,35.34 16.09,31.06 C15.23,29.06 16.09,26.46 18.46,23.99 C21.84,20.46 26.4,19.85 30.99,19.39 C31.4650815,19.3350241 31.9449185,19.3350241 32.42,19.39 L33.34,19.49 C33.09,19.25 32.84,19.03 32.6,18.82 C32.2635246,18.5741465 31.8929474,18.3787513 31.5,18.24 C28.8445317,16.8701917 25.6430992,17.1179447 23.23,18.88 C22.71,19.23 22.15,19.88 21.49,19.19 C20.98,18.68 21.36,18.08 21.61,17.57 C23.24,14.13 26,8.39 31,10.27 C34.15,11.46 36,14.36 37.05,17.43 C37.63,15.67 38.29,13.78 38.76,13.81 C39.23,13.84 39.11,16.22 38.85,18.37 C39.1650829,18.1246283 39.459412,17.8537118 39.73,17.56 C41.0387024,16.2613368 42.8259566,15.5613136 44.6685316,15.6256996 C46.5111065,15.6900856 48.2451386,16.5131547 49.46,17.9 C51.2,19.69 53.36,21.45 52.18,22.16 Z" id="Path" fill="#FAF2EA"></path>
        </g>
    </g>
</svg>