<svg version="1" xmlns="http://www.w3.org/2000/svg" width="933.333" height="933.333" viewBox="0 0 700.000000 700.000000"><path d="M321.5 1.1C219.6 10.4 131.7 58.9 70.2 139.8 3.3 227.7-17.4 346.2 15.7 453c16.5 53.3 44.8 100.9 83.8 140.9 83.7 85.9 204.4 122.8 322.3 98.5C517 672.8 602 611.6 651.9 526.6c59.4-101.1 63.8-226.8 11.7-331.6-17.2-34.4-36.2-61.3-63.1-88.9-57.1-58.6-127.7-93.5-210-103.7-14.5-1.8-55.2-2.6-69-1.3zm27.4 70.4c7.3 1.8 20.8 7.8 27.4 12.4 19.1 13.1 34.8 34.2 45.2 60.6 1.5 3.8 3 7.4 3.5 7.8.4.5 2.6-4.8 5-11.6 7.4-21.8 14.5-32 16.7-24 1 3.5.7 30.3-.5 40-.4 4-.6 7.3-.4 7.3.2 0 3.9-3.2 8.1-7.1 18.6-16.8 31.8-22.3 54.1-22.3 14.5-.1 22.1 1.8 35.5 8.7 6.9 3.5 10.5 6.6 25.8 21.7 9.9 9.6 20.1 20.4 22.8 24 7.7 10.3 7.7 16.8 0 19.1-6 1.8-13.8-.5-37.5-11-23.4-10.3-28.7-12.3-39.3-15-17.5-4.4-31-3.6-43.3 2.5-10.6 5.3-10.6 5.5.2 10.6 20.5 9.8 41.5 24.4 56.8 39.9 23.7 23.8 36 50.5 36 77.8-.1 30-19.2 50.7-56.1 60.6-22.9 6.1-65.1 10.6-71 7.5-2.2-1.2-4.9-6-4.9-8.8 0-2.9 3.5-6.8 10.3-11.4 21.5-14.4 35.8-36.5 39.8-61.3 1.9-11.8.7-30.2-2.5-39.8-3.5-10.5-9.9-22.9-14.2-27.7-6.5-7.2-16.6-10-23.3-6.5-4.2 2.1-5.8 7.4-8.1 26.2-7.7 62.4-20.4 131.6-34.7 187.8-10.9 42.9-28.2 81.2-48 105.8-18.1 22.6-51.3 41-85.7 47.6-36.1 7-69.3 1.3-91.7-15.8-27.2-20.5-39.1-41.7-37.5-66.6.6-10 4.3-24.1 8.3-32.2 14.7-29 54.2-35.2 81.3-12.8 15.9 13.1 25.1 17 40.5 17 11.3 0 19.6-2.3 28.1-7.7 11.2-7 26.6-26.5 33.2-42 11.8-27.7 21.6-56.8 37.7-112.3 13.6-47 19.7-66.6 27.1-86.8 8.3-22.6 8-23.3-10.6-24.8-21.4-1.7-44.7 1.6-60.5 8.6-7.9 3.4-23.5 14-31.2 20.9-7.4 6.8-14.2 16.7-17.4 25.6-2.1 5.8-2.4 8.2-2.4 21.5.1 14.1.3 16.1 4.3 32.6 5.7 24.1 6.8 31.7 5.3 38.4-.8 3.4-2.2 6.1-4.1 8-2.8 2.7-3.2 2.8-10.2 2.2-33.6-2.6-74.3-39.5-79-71.7-4.9-33.2 30.5-79.6 75.1-98.4 22-9.3 45-14.6 80.6-18.7 13.4-1.5 20.8-1.9 29-1.4l10.9.6-1.8-2c-6-6.6-27.2-16.8-40.8-19.5-11.8-2.4-27.6-2.1-38.9.8-12.3 3.1-19.3 6.3-31 14.2-11.4 7.6-14.8 8.2-19.4 3.4-4.7-5-4-7.8 7.8-31.5 19.2-38.4 34.5-57.4 54.5-67.4 9.6-4.9 23.5-6.3 35.1-3.6z"/></svg>