<svg xmlns="http://www.w3.org/2000/svg" viewBox="0 0 62.51 62.51"><defs><style>.cls-1{fill:#f9b318;}.cls-2{fill:#faf2ea;}</style></defs><g id="Layer_2" data-name="Layer 2"><g id="Final_usage" data-name="Final usage"><g id="P-Logo-Mini-yellow"><circle class="cls-1" cx="31.25" cy="31.25" r="31.25"/><path class="cls-2" d="M53.1,18.52c-1.8,1.08-7.81-4.8-11.8-1.49,4,1.67,9.15,5.55,9.17,10.88s-6.32,5.9-10.13,6.22c-.56,0-1.26.2-1.56-.46-.4-.86.39-1.16.9-1.51a7.94,7.94,0,0,0,3.5-7.53A4.56,4.56,0,0,0,43,23.4C42.45,21.91,41.77,20,40.17,20c-1.35,0-1.11,1.23-1.42,3.33a143.13,143.13,0,0,1-3.1,16.4,27.9,27.9,0,0,1-3.45,8C28.64,53.19,20,54.62,16,51.83s-4.4-5.72-3.11-8.91c1.54-3.19,5.38-3.27,7.65-1.15a4.83,4.83,0,0,0,6.06.52,10,10,0,0,0,3.17-4.68c2.38-5.76,3.48-11.95,5.75-17.75.27-.69.19-1.09-.65-1.16-2.62-.23-5.17-.07-7.42,1.48-1.8,1.25-3.3,2.59-3.28,5.28s1.83,6,.53,7.18c-.82.71-5.87-.93-7.67-5.22-.86-2.05,0-4.6,2.37-7.07,3.38-3.53,7.94-4.14,12.53-4.6a6.22,6.22,0,0,1,1.43,0l.92.1c-.25-.24-.5-.46-.74-.67a4.28,4.28,0,0,0-1.1-.58,7.89,7.89,0,0,0-8.27.64c-.52.35-1.08,1-1.74.31-.51-.51-.13-1.11.12-1.62,1.63-3.46,4.38-9.2,9.37-7.32,3.15,1.19,5,4.09,6.05,7.16.58-1.76,1.24-3.65,1.71-3.62s.35,2.41.09,4.56a7.27,7.27,0,0,0,.88-.81,6.68,6.68,0,0,1,9.73.34C52.12,16.05,54.28,17.81,53.1,18.52Z"/></g></g></g></svg>