<svg xmlns="http://www.w3.org/2000/svg" viewBox="0 0 290.06 84.1"><defs><style>.cls-1{fill:#d2d2d2;}.cls-2{fill:#f79868;}</style></defs><g id="Layer_2" data-name="Layer 2"><g id="Final_usage" data-name="Final usage"><g id="PP-Logo-Wide-go"><rect class="cls-1" width="290.06" height="84.1" rx="12"/><path class="cls-2" d="M265.93,75c-8.83.06-14-6.5-11.32-13.44,1.28-3.34,4.88-5.81,8.1-5.57.5,0,1,0,1.31.52s-.1.69-.38,1c-2.1,2.42-2.21,4.41-.38,6a5.3,5.3,0,0,0,7.34-1,9.05,9.05,0,0,0,1.3-7.15,16.41,16.41,0,0,0-1.79-4.61,24.31,24.31,0,0,1-1.44-2.89c-.8-2.18-1.12-4.39.73-6.27a7.72,7.72,0,0,1,7.47-1.33,2.65,2.65,0,0,1,1.75,3.19,1.76,1.76,0,0,1-2,1.44c-.86-.09-1.59-.44-1.54-1.57,0-.45.55-1.32-.51-1.27-.68,0-.82.71-.89,1.31a7.23,7.23,0,0,0,1.22,4.47C276.6,51,278.38,54,279,57.65c1.27,7.72-3,15.1-10.1,16.95A18,18,0,0,1,265.93,75Z"/><path class="cls-2" d="M254.51,39.12c1.07.12,2.33-.37,2.65,1s1,.62,1.5.28a7,7,0,0,1,4.21-1.26c2.31.08,3.38,1.22,3.06,3.47-.21,1.47-.62,2.92-.92,4.38s-.34,2.69,1.77,1.89c.42-.16.9-.29,1.08.15a1.68,1.68,0,0,1-.2,1.15c-1,2.08-4.41,3.27-6.74,2.4-1.86-.7-2.53-2.59-1.84-5.29.25-1,.56-1.91.87-2.86.19-.59.28-1.19-.3-1.57s-1.26,0-1.7.52c-1.71,2.06-2.3,4.56-2.75,7.1-.35,2-2.06,2.94-4.7,2.36-2.11-.47-1.1-2-.9-3.22.44-2.77,1.32-5.43,1.28-8.32C250.84,38.86,253.16,39.49,254.51,39.12Z"/><path class="cls-2" d="M243,39.78c.74,0,1.28.21,1.32,1.1,0,.43.23.53.66.22a7.89,7.89,0,0,1,1.93-1.1,2.11,2.11,0,0,1,2.48.59,2.55,2.55,0,0,1,.26,2.59,2.66,2.66,0,0,1-2.3,2.12,1.83,1.83,0,0,1-1.92-.64.56.56,0,0,0-1,0,9.64,9.64,0,0,0-1.08,2.06,19.5,19.5,0,0,0-1.22,5.13c-.08,1.22-.28,1.29-1.51,1.34-.86,0-1.71.15-2.57.19-1.5.06-1.69-.27-1.52-1.36.21-1.34.55-2.66.78-4,.35-2,1.11-3.95.75-6-.19-1.08,0-1.38,1.09-1.69A27.88,27.88,0,0,1,243,39.78Z"/><path class="cls-2" d="M221.29,47.94c-.14-6.76,6.89-9.19,11.43-7.7,2.57.84,2.7,4.18.3,6a10,10,0,0,1-3.81,1.78c-.51.13-1.28.14-1.22,1a1.55,1.55,0,0,0,1.1,1.25,4,4,0,0,0,4-.54c1.4-.88,2.62,2.55.54,3.16C226.59,54.38,221,52.27,221.29,47.94ZM228,46c.67.31,2.31-1.29,3-2.38.27-.46.39-.93-.07-1.32a1,1,0,0,0-1.34,0C228.48,43.19,227.31,45.68,228,46Z"/><path class="cls-2" d="M230,37.33a21.2,21.2,0,0,1-11.36,3.24,3.86,3.86,0,0,0-1.75.36l-.24.14a3,3,0,0,0-1.16,2c-.32,1.57-.64,3.13-.91,4.7a1.9,1.9,0,0,0,.71,2.13c.79.5,1.35-.11,2-.47s1.2-1.27,1.82-.44c.51.68-.33,1.31-.82,1.81-1.45,1.49-3.11,2.62-4.44,2.58-3.36,0-4.65-1.3-4.66-3.76a32,32,0,0,1,1-6c.17-.9.69-1.8.24-2.66a10.88,10.88,0,0,0-3.21-.48c-1.93,0-2.81.82-3.16,2.53-.31,1.56-.64,3.13-.91,4.7a1.89,1.89,0,0,0,.72,2.13c.78.5,1.34-.11,1.95-.47s1.21-1.28,1.83-.44c.5.68-.34,1.31-.82,1.81-1.46,1.49-3.11,2.62-4.44,2.57-3.36,0-4.65-1.29-4.66-3.75a31.05,31.05,0,0,1,1-6c.22-1.15,1-2.31-.37-3.35-.41-.31-.22-1,.5-1.08a7.37,7.37,0,0,0,4.83-3.43c.38-.53.82-1.21,1.57-.79s.37,1.14.16,1.73c-.6,1.63.3,1.85,1.62,2,2.42.21,2.66,1,4.92,0a8.69,8.69,0,0,0,3.16-2.91c.38-.53.82-1.21,1.57-.79s.38,1.14.16,1.74c-.6,1.62.15,1.63,1.44,1.33a14.07,14.07,0,0,0,10.27-11c.4-2.36,1.16-2.63,3.09-1.09C235.39,29,234.61,34.36,230,37.33Z"/><path class="cls-2" d="M186.88,39.76c2.19.07,4.31.87,6.6.11,1.45-.48,1.52.71,1.19,1.86a22,22,0,0,0-1.21,6.32c0,1.09.11,2.13,1.68,1.51.39-.16.81-.38,1.13,0s.09.92-.16,1.37a5,5,0,0,1-6.89,1.69,1.92,1.92,0,0,0-2.37-.36c-3.64,1.78-6.41,1.44-7.83-.77-1.71-2.68-.8-7.51,1.86-9.77A8.35,8.35,0,0,1,186.88,39.76Zm1.57,4.48c-.06-.87.25-1.85-.73-2.26s-1.73.36-2.23,1.11A9.28,9.28,0,0,0,184,48.52a1.63,1.63,0,0,0,1,1.56c.77.31,1.26-.28,1.65-.79C187.87,47.79,188.1,46,188.45,44.24Z"/><path class="cls-2" d="M192,31.18c0,5.47-6.49,7-10.3,7.33-.56,0-1.26.2-1.56-.46-.4-.86.39-1.16.9-1.52a8.45,8.45,0,0,0,3.5-7.52c-.05-1.47-1.4-4.67-3-4.65-1.35,0-1.22,1.78-1.42,3.33a132.57,132.57,0,0,1-3.1,16.39,28,28,0,0,1-3.45,8c-3.56,5.51-11.32,7.3-16.71,3.85a9.28,9.28,0,0,1-3.27-11.28c1.53-3.79,6.57-6.69,10.33-5.91.63.13,1.42.18,1.56,1s-.78.94-1.31,1.24c-2.52,1.45-3.42,3.46-2.28,5.2s4,2,6.06.52A10.07,10.07,0,0,0,171.15,42c2.39-6.61,3-9,5.16-16.15a11.15,11.15,0,0,0,.51-2.51h0c0-.56-.17-1.19-.73-1.29a1,1,0,0,0-1,1.15c.13,1.24-.74,1.63-1.71,1.64a1.75,1.75,0,0,1-1.88-1.62c-.22-1.58.2-3.21,5-3.46S192,21.74,192,31.18Z"/><path class="cls-2" d="M130.67,47.79c-.14-6.76,6.89-9.19,11.43-7.7,2.57.84,2.71,4.18.31,6a10.18,10.18,0,0,1-3.81,1.78c-.51.13-1.28.14-1.23,1a1.57,1.57,0,0,0,1.1,1.25,4,4,0,0,0,4-.54c1.4-.88,2.62,2.55.54,3.16C136,54.23,130.39,52.12,130.67,47.79Zm6.69-1.95c.67.31,2.31-1.29,2.95-2.38.28-.46.39-.92-.07-1.32a1,1,0,0,0-1.34,0C137.87,43,136.69,45.53,137.36,45.84Z"/><path class="cls-2" d="M123.45,50.4c.18-.6-.6-1.92-1.24-2.53-1.7-1.62-3.89-3-2.4-5.8s4.1-2.47,6.59-2.37a4.68,4.68,0,0,1,2.72,1.1,2.66,2.66,0,0,1,.55,2.84c-.48.8-.93,1.55-2,1.08s-1.63-3-2.15-3-.53,1.47-.1,2.21a7.64,7.64,0,0,0,2,1.77c2.94,2.31,2.63,6-.9,7.13a14.81,14.81,0,0,1-6.49,0,2.65,2.65,0,0,1-2.16-3.38c.17-.72.68-1.78,1.61-1.79a2.72,2.72,0,0,1,2.11,1.13c.7.71.45,1.67.78,2A.65.65,0,0,0,123.45,50.4Z"/><path class="cls-2" d="M113.05,39.77c2-.21,2.53.79,2.13,2.52s-.84,3.3-1.11,5c-.22,1.33-.45,2.85,1.93,2,1.25-.45,1.23.32.86,1.16-.87,2-3.87,3.15-6.43,2.57s-2.7-2.24-2.64-4.28c.08-2.52,1.1-4.85,1.28-7.39C109.2,39.59,111.54,39.92,113.05,39.77Z"/><path class="cls-2" d="M110.35,36.6a3.17,3.17,0,0,1,3.16-3.36c1.62,0,2.47.74,2.44,2.38a3.49,3.49,0,0,1-3.18,3.45A2.21,2.21,0,0,1,110.35,36.6Z"/><path class="cls-2" d="M82.79,25.92c-3.87.06-7.22.73-9.51,3.9-.35.48-.74,1-1.39.81s-.76-1-.84-1.67a10.6,10.6,0,0,1,8.09-11.55c4.49-1.11,8.58.08,12.41,2.28,3.24,1.86,6.38,3.89,9.49,5.94,1.34.88,2,.82,2.72-.75a19.6,19.6,0,0,1,5.43-7.35A10.25,10.25,0,0,1,116.06,15c3.68.1,6.31,1.86,7,4.54a9,9,0,0,1-3.82,9.8,15.72,15.72,0,0,1-10.51,2.21c-1.59-.18-2.33.1-2.79,1.8-1.14,4.15-2.31,8.3-3.08,12.54-.55,3,0,3.49,2.85,2.55.42-.13.83-.26,1.15.07s.07.75-.09,1.13c-1.31,3-6,4.45-8.49,2.51a1.65,1.65,0,0,0-2.33-.08,6.42,6.42,0,0,1-1.57.73c-4.2,1.25-7-.82-6.89-5.14.1-5.35,3.83-8.76,9.3-8.19,1.65.17,1.93-.35,2.45-1.72s2.54-5.22,1.47-7c-.94-1.56-12.41-4.19-15.44-4.72A21.56,21.56,0,0,0,82.79,25.92Zm28.09,3c1.71-.18,3.79-.66,4.92-2.85a2.63,2.63,0,0,0-.21-3.24c-1-1.05-2.26-.86-3.41-.17a10.06,10.06,0,0,0-3.25,3.7C107.73,28.33,108,28.72,110.88,28.88Zm-13.25,15c0-1,.25-2-.81-2.28s-1.56.4-2,1.11a11.65,11.65,0,0,0-1.5,5.4c-.07.7,0,1.55,1,1.76A1.57,1.57,0,0,0,96,49.07,12.33,12.33,0,0,0,97.63,43.92Z"/><path class="cls-2" d="M76.88,39.42c2.19.08,4.31.88,6.6.12,1.45-.48,1.52.71,1.19,1.85a22.33,22.33,0,0,0-1.22,6.32c0,1.09.12,2.14,1.69,1.51.39-.15.81-.38,1.12,0s.09.92-.15,1.38a5,5,0,0,1-6.89,1.69A1.91,1.91,0,0,0,76.85,52c-3.64,1.78-6.41,1.43-7.83-.78-1.71-2.68-.8-7.5,1.86-9.77A8.38,8.38,0,0,1,76.88,39.42Zm1.57,4.48c-.06-.86.25-1.84-.73-2.25S76,42,75.49,42.76A9.26,9.26,0,0,0,74,48.18a1.65,1.65,0,0,0,1,1.57c.78.31,1.27-.28,1.66-.79C77.87,47.46,78.1,45.63,78.45,43.9Z"/><path class="cls-2" d="M61.88,39.45c.74,0,1.27.21,1.32,1.1,0,.43.23.53.65.21a8.66,8.66,0,0,1,1.94-1.1,2.12,2.12,0,0,1,2.48.59,2.57,2.57,0,0,1,.25,2.6A2.65,2.65,0,0,1,66.23,45a1.84,1.84,0,0,1-1.92-.64.56.56,0,0,0-1,0,9.61,9.61,0,0,0-1.09,2A19.88,19.88,0,0,0,61,51.52c-.08,1.23-.29,1.3-1.51,1.35-.86,0-1.72.14-2.57.18-1.5.07-1.7-.26-1.53-1.35.22-1.34.55-2.66.78-4,.35-2,1.11-3.94.75-6-.19-1.08,0-1.38,1.1-1.69A27.68,27.68,0,0,1,61.88,39.45Z"/><path class="cls-2" d="M45.25,39.42c2.19.08,4.31.88,6.6.12,1.44-.48,1.52.71,1.19,1.85a21.65,21.65,0,0,0-1.22,6.32c0,1.09.12,2.14,1.69,1.51.38-.15.81-.38,1.12,0s.09.92-.15,1.38a5,5,0,0,1-6.89,1.69A1.91,1.91,0,0,0,45.22,52c-3.64,1.78-6.42,1.43-7.83-.78-1.71-2.68-.81-7.5,1.86-9.77A8.38,8.38,0,0,1,45.25,39.42Zm1.57,4.48c-.07-.86.24-1.84-.74-2.25s-1.72.36-2.23,1.11a9.33,9.33,0,0,0-1.46,5.42,1.65,1.65,0,0,0,1,1.57c.78.31,1.27-.28,1.66-.79C46.24,47.46,46.47,45.63,46.82,43.9Z"/><path class="cls-2" d="M52.18,22.16c-1.8,1.08-7.81-4.8-11.8-1.49,4,1.67,9.15,5.55,9.17,10.88s-6.32,5.9-10.13,6.22c-.56,0-1.26.2-1.56-.46-.4-.86.39-1.16.9-1.51a7.94,7.94,0,0,0,3.5-7.53A4.56,4.56,0,0,0,42.1,27c-.57-1.49-1.25-3.44-2.85-3.42-1.35,0-1.11,1.22-1.42,3.33a141,141,0,0,1-3.1,16.4,27.9,27.9,0,0,1-3.45,8c-3.56,5.52-12.17,6.95-16.22,4.16s-4.4-5.72-3.11-8.91c1.54-3.19,5.38-3.27,7.65-1.15a4.83,4.83,0,0,0,6.06.52,10,10,0,0,0,3.17-4.68c2.38-5.76,3.48-11.95,5.75-17.75.27-.69.19-1.09-.65-1.16-2.62-.23-5.17-.07-7.42,1.48-1.8,1.25-3.3,2.59-3.28,5.28s1.83,6,.53,7.18c-.82.71-5.87-.94-7.67-5.22-.86-2,0-4.6,2.37-7.07,3.38-3.53,7.94-4.14,12.53-4.6a6.22,6.22,0,0,1,1.43,0l.92.1c-.25-.24-.5-.46-.74-.67a4.28,4.28,0,0,0-1.1-.58,7.89,7.89,0,0,0-8.27.64c-.52.35-1.08,1-1.74.31-.51-.51-.13-1.11.12-1.62C23.24,14.13,26,8.39,31,10.27c3.15,1.19,5,4.09,6.05,7.16.58-1.76,1.24-3.65,1.71-3.62s.35,2.41.09,4.56a7.27,7.27,0,0,0,.88-.81,6.68,6.68,0,0,1,9.73.34C51.2,19.69,53.36,21.45,52.18,22.16Z"/></g></g></g></svg>